<svg width="342" height="614" viewBox="0 0 342 614" fill="none" xmlns="http://www.w3.org/2000/svg">
<g clip-path="url(#clip0_25_642)">
<rect width="342" height="614" fill="#FF8F38"/>
<rect width="342" height="614" fill="#F2F2F2"/>
<mask id="mask0_25_642" style="mask-type:alpha" maskUnits="userSpaceOnUse" x="0" y="0" width="342" height="614">
<rect width="342" height="614" fill="#C4C4C4"/>
</mask>
<g mask="url(#mask0_25_642)">
<path d="M33.6739 25L29.3696 4.5L31.7609 -5H-3.15217V124L1.15217 91.5L10.7174 66.5L33.6739 25Z" fill="white"/>
<path d="M111.63 -3C112.399 -2.00541 154.523 28.0811 175.489 43L206.217 38.6486L234.065 -3H111.63Z" fill="white"/>
<path d="M151.804 125L97.2826 140L108.761 194L160.413 185L191.022 209L229.283 152L184.326 91L151.804 125Z" fill="white"/>
<path d="M-3.15217 239L53.7609 245.5L65.2391 259.5L79.1087 263.5L83.8913 288.5H102.065V312.5L95.3696 317.5L107.326 339L132.196 349L127.891 365L110.196 355.5L74.8043 400L68.587 388.5L62.3696 390.5L32.7174 384.5L18.3696 355.5L-4.1087 344.5L-3.15217 239Z" fill="white"/>
<path d="M327.326 588L350.283 577L367.5 636.5L350.761 798L251.283 789.5L241.239 749.5L226.891 725.5L233.109 706L252.717 702.5L260.37 722L258.457 740L278.065 747.5L293.37 725.5L296.239 726L302.457 708L298.152 679H310.587L309.63 666.5L314.413 669L315.848 659L320.152 662L316.326 649.5L331.152 637.5L325.891 636.5L321.587 629.5L327.326 600V588Z" fill="white"/>
<path d="M294.804 435L285.717 448L305.326 462L300.543 500.5L288.109 516L269.457 517L249.37 505.5L225.935 502.5L222.109 495.5H234.543L243.152 481.5L239.804 467.5H245.065L246.978 479.5H257.022L262.761 495.5H267.543V473L265.152 462L267.543 435L282.848 418.5L296.239 420L294.804 435Z" fill="white"/>
<path d="M21.2391 493.5L-9.84783 479L-11.7609 510L36.0652 530.5L68.587 522L70.5 530.5L82.9348 526.5L80.0652 515.5L97.2826 504.5L68.587 487L47.5435 485L43.2391 490L47.5435 492.5L45.6304 495.5L51.3696 498L49.4565 504.5L52.8043 506.5L47.5435 512L36.0652 502.5L34.1522 504.5L38.4565 508.5L28.413 512L16.9348 501L21.2391 493.5Z" fill="white"/>
<path d="M324.457 294.5L316.804 301.5V318L311.065 330L321.109 339L333.065 334.5L339.283 320L337.37 304L324.457 294.5Z" fill="white"/>
<path d="M150.37 291.5L144.152 278.5L155.152 275.5L163.283 280.5L168.543 303.5L150.37 291.5Z" fill="white"/>
<path d="M170.935 334.5L182.891 335.5L180.5 348.5L175.717 352L170.935 347V334.5Z" fill="white"/>
<path d="M232.63 341.5V360.5H226.413L228.326 369.5L239.804 364.5L237.413 353L245.065 348.5L262.761 363L265.152 351.5L273.283 347V340H265.152L260.848 344.5H252.717L250.326 340L232.63 341.5Z" fill="white"/>
<path d="M272.804 220.5L255.109 236.5V247.5H264.196L262.283 236.5L275.674 227.5L280.457 218H275.674V223L272.804 220.5Z" fill="white"/>
<path d="M164.717 269L167.587 257.5H174.761L178.109 261L173.326 271L164.717 269Z" fill="white"/>
<path d="M140.685 785L149.891 773L108.462 746.6L110.764 730.5L86.7609 734.5L72.8913 710.6H48.6196L55.5245 681.8L48.6196 653H18.6984L32.5082 701L14.0951 684.2L2.58696 697L10.1793 720.4L-2.67391 727.4L-28.5 752.5V776L11.4647 799L84.3696 794H104.457L110.764 768.2L140.685 785Z" fill="white"/>
<path d="M89.6304 566.8L96.5353 552.4L111.72 537L126.068 569.5L143.764 552.4L171.024 566.8L179.155 598L210.72 585L219.329 634L186.299 650.8L167.886 634L135.155 638.5L119.552 605.2L98.837 607.6L89.6304 598L91.9321 588.4L89.6304 566.8Z" fill="white"/>
<path d="M43.7174 69V116.552L76.0378 126L89.6304 96.3978L76.0378 69H43.7174Z" fill="white"/>
<path fill-rule="evenodd" clip-rule="evenodd" d="M231.291 532.151L214.062 589.205L214.035 589.254C211.406 593.92 207.414 601.043 203.985 607.25C202.27 610.354 200.696 613.227 199.504 615.448C198.3 617.689 197.509 619.225 197.333 619.686C197.223 619.974 196.827 621.274 196.207 623.376C195.593 625.462 194.765 628.309 193.798 631.66C191.863 638.362 189.368 647.081 186.888 655.768C185.045 662.226 183.208 668.671 181.616 674.257C178.927 683.692 176.936 690.681 176.784 691.158C176.704 691.408 176.345 692.231 175.813 693.414C175.272 694.618 174.531 696.237 173.667 698.113C171.938 701.867 169.71 706.654 167.578 711.219C165.851 714.916 164.187 718.467 162.9 721.206L152.424 747.6V790H151.468V747.4L162.029 720.794L162.036 720.78C163.265 718.163 164.84 714.803 166.485 711.282L147.147 704.024L138.591 706.51L121.631 704.046L118.42 711.241L105.484 732.5H112.567L116.014 740.223L130.311 757.169L129.594 757.831L115.205 740.777L111.958 733.5H103.742L117.58 710.759L120.664 703.847L99.9401 698.79L93.5964 703.766L91.2315 732.948L105.071 781.858L104.154 782.142L90.2635 733.052L92.6797 703.234L98.7246 698.493L78.5655 693.574L71.0677 708.276L57.9103 725.476L70.1313 739.239L74.5564 753.122L63.0369 766.173L64.9267 784.948L63.9757 785.052L62.0406 765.827L73.4706 752.878L69.2896 739.761L56.6486 725.524L70.2657 707.724L77.3644 693.805L71.7542 695.481L71.4915 694.519L78.3044 692.484L121.434 703.008L138.526 705.49L147.183 702.976L166.907 710.378C168.981 705.936 171.129 701.32 172.806 697.679C173.67 695.804 174.408 694.188 174.948 692.989C175.496 691.768 175.82 691.019 175.876 690.842C176.024 690.38 177.987 683.489 180.65 674.147C182.252 668.524 184.107 662.014 185.972 655.482C188.452 646.794 190.948 638.075 192.883 631.371C193.85 628.019 194.678 625.171 195.294 623.081C195.905 621.008 196.316 619.651 196.445 619.314C196.651 618.775 197.485 617.165 198.67 614.958C199.865 612.732 201.441 609.855 203.157 606.75C206.576 600.562 210.553 593.463 213.183 588.795L230.379 531.849L231.291 532.151Z" fill="#B3B3B3"/>
<path fill-rule="evenodd" clip-rule="evenodd" d="M121.338 470.904L127.107 501.571L123.304 509.524L130.326 528.126L134.986 530.292L132.441 534.017L138.164 543.493L134.144 550.5H150.843L153.89 558.996L151.668 565.5H155.146L159.641 578.035L157.603 582.061L164.121 586.057L185.62 596.549L216.318 611.86L226.552 595.321L228.966 577.646L237.551 573.95L252.383 581.963L251.463 590.855L263.509 587.948L276.128 602.16L275.427 602.84L263.185 589.052L250.368 592.145L251.361 582.537L237.506 575.051L229.835 578.354L227.469 595.679L217.239 612.212L221.751 613.628V620.293L229.642 628.545L241.939 631.513L241.724 632.487L229.16 629.455L225.815 625.957V636H224.859V624.957L220.795 620.707V614.372L216.319 612.968L185.212 597.453L185.208 597.451L163.677 586.943L157.155 582.945L155.16 586.887L150.955 588.841L149.006 606.169L144.581 604.626L138.159 622.375L141.038 625.386L139.722 628.597L159.214 631.509L191.24 640.507L209.048 642.52L214.26 647.475L229.436 645.492L248.652 651.018L248.398 651.982L229.366 646.508L213.942 648.525L208.635 643.48L191.063 641.493L159.022 632.491L139.972 629.645L201.069 734.648L218.64 747.221L220.859 740.726L228.521 732.713L214.064 727.515L203.195 729.582L200.243 712.087L201.185 711.913L203.97 728.418L214.138 726.485L229.399 731.971L238.562 728.617L241.308 717.129L238.145 713.27L247.871 709.71L245.132 703.504L259.085 670.796L259.959 671.204L246.182 703.496L249.18 710.29L239.781 713.73L242.355 716.871L239.364 729.383L229.662 732.934L227.905 734.771L235.961 737.432L238.765 734.5H245.383L253.448 720.111L275.579 709.545L275.976 710.455L254.121 720.889L245.93 735.5H239.161L236.227 738.568L227.143 735.568L221.687 741.274L219.124 748.779L200.359 735.352L193.419 723.425L178.919 718.935L175 713.812L175.747 713.188L179.478 718.065L192.679 722.153L138.692 629.368L133.526 626.217L132.134 629.614L121.547 626.091L110.797 643.2L109.34 649.802L101.627 655.347L99.5959 659.064L83.8194 655.596L81.6446 669.158L71.4906 690.064L72.5666 694.886L71.6354 695.114L68.3165 680.239L55.9802 665.904L51.8807 675.431L45.5369 676.962L41.6879 680.093L45.9006 685.967L39.6302 697.064L41.5549 703.606L24.3489 726.098L29.9156 743.077L47.9675 747.548L55.2377 755.658L54.5401 756.342L47.4669 748.452L29.1821 743.923L23.7052 727.217L19.9416 734.214L12.3889 754.454L24.2223 775.244L23.4006 775.756L11.3283 754.546L19.0752 733.786L23.4138 725.719L31.6816 714.912L11.8284 704.048L-0.400757 708.967L-0.744023 708.033L11.8887 702.952L32.2902 714.116L40.4922 703.394L38.592 696.936L44.7526 686.033L40.6946 680.375L33.338 675.566L28.1679 678.024L16.9911 675.483L6.12121 671.694V682.5H5.16498V671.5H-0.717152L-3.70629 669.416L-3.17587 668.584L-0.427619 670.5H5.72069L17.2445 674.517L28.061 676.976L33.4095 674.434L40.9937 679.391L45.1163 676.038L51.2034 674.569L55.3197 665.003L52.629 658.906L49.4859 657.81L51.0025 653.581L48.4343 650H45.0387L40.5891 641.21L38.7121 636.303L35.8775 633.833L19.0303 605.643V601.393L-2.48485 595.893V590.667L-5.25791 586.8L-4.49293 586.2L-1.52862 590.333V595.108L19.3292 600.439L23.776 594.756L25.2458 596.293L29.3613 591.989L47.6707 592.997L51.4832 592H72.201L87.2976 598.907L92.8468 593.256L93.6306 588.368L97.4638 577.846L100.749 565.084L92.1529 551.1L92.8623 547.423L58.5057 542.475L-10.4509 478.875L-9.81843 478.125L0.444307 487.591L2.79049 478.371L3.71456 478.629L1.24572 488.33L58.9219 541.525L93.0518 546.441L103.188 493.901L104.125 494.099L93.1669 550.9L101.316 564.156L105.594 558.788L108.464 538.272L115.609 530.302V523.382L120.779 512.569L118.478 509.681V506.29L108.438 500.29V493H109.394V499.71L119.434 505.71V509.319L121.246 511.593L126.105 501.429L120.4 471.097L121.338 470.904ZM101.44 566.247L98.3746 578.154L94.6769 588.305L123.259 608.232V612.382L127.196 620.615L122.282 625.287L131.597 628.386L133.073 624.783L137.625 627.56L101.44 566.247ZM138.96 627.918L139.904 625.614L137.046 622.625L144.012 603.374L148.193 604.831L150.069 588.159L154.47 586.113L158.595 577.965L154.483 566.5H150.311L152.871 559.004L150.18 551.5H132.455L137.041 543.507L131.289 533.983L133.526 530.708L129.58 528.874L122.73 510.726L116.566 523.618V530.698L109.367 538.728L106.501 559.212L101.854 565.044L138.96 627.918ZM94.4436 589.344L122.303 608.768V612.618L126.016 620.385L120.98 625.173L109.904 642.8L108.492 649.198L100.905 654.653L99.1112 657.936L83.9777 654.609L94.4436 589.344ZM92.5793 594.924L87.5038 600.093L72.001 593H51.6009L47.7636 594.003L29.7363 593.011L25.2458 597.707L23.8469 596.244L19.9865 601.178V605.357L36.6073 633.167L39.5101 635.697L41.458 640.79L45.6145 649H48.9125L52.0817 653.419L50.7296 657.19L53.3239 658.094L56.2489 664.722L69.1919 679.761L71.153 688.551L80.7258 668.842L92.5793 594.924Z" fill="#B3B3B3"/>
<path fill-rule="evenodd" clip-rule="evenodd" d="M346.196 601.151L346.882 601.849L330.199 619.793L321.677 637.618V654.5H330.072L333.955 661.1L341.94 664.538L341.576 665.462L333.304 661.901L329.538 655.5H321.677V672.5H320.721V637.382L329.41 619.207L346.196 601.151Z" fill="#B3B3B3"/>
<path fill-rule="evenodd" clip-rule="evenodd" d="M36.2593 466.368L40.5623 449.868L41.4848 450.132L37.1818 466.632L36.2593 466.368Z" fill="#B3B3B3"/>
<path fill-rule="evenodd" clip-rule="evenodd" d="M-8.28755 248.248L13.2667 286.818L15.1707 296.275L22.308 305.232L39.953 346.127L44.5942 348.439L61.7951 338.582L94.282 311.603L126.801 286.597L127.367 287.403L94.8628 312.397L62.3261 339.418L42.7726 350.623L56.2172 373.179L90.1168 406.134L89.4657 406.866L55.536 373.882L33.3298 356.034L27.3316 359.471L17.387 361.947L9.41606 372.244L8.03367 376.581V381.172L4.79301 385.529L8.01428 390.823L9.42493 401.149L27.3291 409.033L68.9272 424.033L89.9808 433.541L89.6017 434.459L68.5813 424.967L26.9874 409.967L8.55487 401.851L7.09683 391.177L3.6245 385.471L7.07744 380.828V376.419L8.56374 371.756L16.2744 361.795L7.4967 359.5H-8.70034V358.5H7.61442L17.1206 360.985L26.9849 358.529L38.9543 351.67L32.0608 337.371L-8.91811 315.445L-8.48257 314.555L32.7742 336.629L39.7934 351.19L43.56 349.031L39.2255 346.873L21.49 305.768L14.2839 296.725L12.3629 287.182L-9.11313 248.752L-8.28755 248.248ZM34.2459 355.509L54.042 371.42L41.9327 351.104L34.2459 355.509Z" fill="#B3B3B3"/>
<path fill-rule="evenodd" clip-rule="evenodd" d="M323.082 699.943L325.537 745.639L310.608 741.996L291.043 740.499L291.112 739.501L310.752 741.004L324.51 744.361L322.184 701.057L289.219 704.997L289.111 704.003L323.082 699.943Z" fill="#B3B3B3"/>
<path fill-rule="evenodd" clip-rule="evenodd" d="M82.3093 27.0767L57.9957 -1.83966L59.4319 -3.16034L83.886 25.9233L112.377 80.5253L146.109 55.0635L140.034 22.4527L146.448 -0.5H180.507L209.893 25.6965L270.987 67.126L328.029 95.72L345.739 67.452L347.339 68.548L328.712 98.28L270.05 68.874L208.747 27.3035L179.803 1.5H147.882L142 22.5473L148.221 55.9365L113.301 82.2949L186.78 223.114L194.026 248.688L208.777 234.664L232.844 222.337L248.91 234.556L261.927 236.987L277.668 234.566L282.425 228.596L293.633 226.048L317.561 214.037L346.382 209.014L346.696 210.986L318.143 215.963L294.259 227.952L283.474 230.404L278.669 236.434L261.898 239.013L248.141 236.444L232.651 224.663L209.863 236.336L194.791 250.664L210.054 274.849L229.761 293.949L239.42 326.779L244.197 360.748L256.358 394.5H270.04V409.76L283.655 437.744L351.255 471.598L350.429 473.402L282.244 439.256L268.128 410.24V396.5H256.867L262.869 427.399V472.587L256.696 509.331L270.014 535.197L276.717 598.044L282.199 584.285L297.975 575.52L327.033 573.029L350.228 552.733L351.455 554.267L327.795 574.971L298.524 577.48L283.7 585.715L277.154 602.146L298.243 799.889L296.343 800.111L268.154 535.803L254.698 509.669L260.956 472.413V451.658L175.568 498.76L129.524 575H-24V573H128.47L174.224 497.24L260.956 449.397V427.6L254.85 396.163L238.224 386.987L193.179 384.481L167.468 362.482L162.624 370.31L145.764 377.363L110.092 410.688L80.9426 449.168L-12.8088 546.211L-14.1542 544.789L79.5152 447.832L108.696 409.312L144.741 375.637L161.349 368.69L165.863 361.395L155.04 355.736L112.445 257.138L76.2592 227.76L67.7567 219.363L30.5469 204.396L-11.6108 175.839L-10.5711 174.161L31.4194 202.604L68.1523 217.379L79.5056 209.305L96.6685 177.397L112.523 160.315L112.533 160.304L127.939 143.184L139.702 137.067L82.3093 27.0767ZM140.619 138.824L129.098 144.816L113.91 161.691L98.2137 178.603L81.1355 210.354L79.1832 220.271L109.597 228.522L155.981 237.023L175.184 242.546L192.089 248.892L185.004 223.886L140.619 138.824ZM192.919 251.329L174.607 244.454L155.561 238.977L109.191 230.478L78.7971 222.232L77.9388 226.592L113.993 255.862L156.503 354.264L167.539 360.035L185.821 362.977L204.204 357.061L216.291 351.5H229.175L242.035 359.121L237.549 327.221L228.084 295.051L208.585 276.151L192.919 251.329ZM242.493 361.691L228.67 353.5H216.693L204.873 358.939L185.964 365.023L170.562 362.545L193.905 382.519L238.745 385.013L253.913 393.385L242.493 361.691ZM76.2915 225.041L69.7976 218.627L78.8169 212.213L76.2915 225.041Z" fill="#B3B3B3"/>
<path fill-rule="evenodd" clip-rule="evenodd" d="M245.128 523.658L256.994 513.234L258.224 514.766L246.185 525.342L230.785 533.394L229.929 531.606L245.128 523.658Z" fill="#B3B3B3"/>
<path fill-rule="evenodd" clip-rule="evenodd" d="M331.717 521.207L326.12 515.354L326.796 514.646L332.673 520.793V541H331.717V521.207Z" fill="#B3B3B3"/>
<path fill-rule="evenodd" clip-rule="evenodd" d="M303.96 140.186L298.762 166.129L303.941 173.269L311.636 199.926V217.5H310.68V200.074L303.076 173.731L298.502 167.426L293.456 192.613L286.236 222.309L280.525 226.291L276.321 257.798L294.829 259.491L325.701 246.376L328.991 252.11L321.552 258.593L310.1 275.31L304.048 282.612L307.519 293.5H290.491L284.89 315.953L299.876 349.746L307.295 344.269L305.642 332.659L310.753 322.732L328.023 298.15L356.281 274.609L356.877 275.391L328.718 298.85L311.698 323.076L321.528 350H333.024L341.288 377.45L337 418.303L366.943 447.132L366.296 447.868L335.997 418.697L340.315 377.55L332.323 351H320.869L311.084 324.199L306.634 332.841L308.328 344.731L300.266 350.682L315.028 390.026L298.89 423.285L369.231 461.556L368.789 462.444L297.609 423.715L313.982 389.974L299.244 350.697L284.51 317.474L279.084 339.228L271.965 348.658L273.39 369.52L269.557 395.576L268.612 395.424L272.428 369.48L271.026 348.944L248.259 345.871L251.919 357.062L237.99 380.67L234.12 412.544L203.552 409.499L174.941 408.518L177.308 436.74L148.244 458.523L138.213 457.025L110.766 479.182L82.2607 445.33L82.9783 444.67L110.891 477.818L137.949 455.975L147.999 457.477L176.308 436.26L173.894 407.482L203.598 408.5L203.613 408.501L203.628 408.502L233.288 411.456L237.067 380.33L250.868 356.938L247.201 345.729L241.801 345H220.101L202.235 323.792L196.449 313.132L186.223 323.361L186.217 323.367L173.418 335.76L168.191 360.607L167.257 360.393L172.548 335.24L185.229 322.961L167.288 301.237L163.953 287.286L147.835 273.901L147.824 273.892L113.865 247.382L100.735 234.159L102.236 227.879L103.164 228.121L101.797 233.841L114.485 246.618L148.284 273.003L218.025 274.502L226.148 278H237.685L260.994 295.909L271.034 290.182L279.637 225.709L285.4 221.691L292.524 192.387L303.057 139.814L327.961 96.7413L328.847 97.0428L323.606 160.82L345.931 185.658L345.234 186.342L322.616 161.18L327.718 99.0939L303.96 140.186ZM260.538 296.799L237.372 279H225.959L217.827 275.498L149.529 274.03L164.651 286.589L192.941 304.641L196.675 311.522L207.678 300.516L237.559 297.996L262.207 303.346L260.538 296.799ZM262.141 304.353L237.499 299.004L208.093 301.484L197.162 312.419L203.018 323.208L220.532 344H241.546L244.758 337.761L262.141 304.353ZM242.582 344.097L246.856 344.674L245.08 339.245L242.582 344.097ZM247.914 344.817L271.267 347.968L278.209 338.772L289.752 292.5H306.192L302.969 282.388L309.348 274.69L320.846 257.907L327.75 251.89L325.302 247.624L294.976 260.509L276.189 258.789L271.915 290.818L261.515 296.751L263.38 304.064L245.699 338.046L247.914 344.817ZM195.963 312.235L192.231 305.359L165.124 288.062L168.16 300.763L185.925 322.275L195.963 312.235Z" fill="#B3B3B3"/>
<path fill-rule="evenodd" clip-rule="evenodd" d="M-8.60313 92.3022L-7.84131 91.6978L13.1771 120.672L45.2009 154.662L79.154 196.17L92.0405 211.144L103.837 222H112.842L138.753 234.043L138.365 234.957L112.639 223H103.476L91.3669 211.856L78.4312 196.825L44.4961 155.338L12.4526 121.328L-8.60313 92.3022Z" fill="#B3B3B3"/>
<path fill-rule="evenodd" clip-rule="evenodd" d="M181.102 -1.59806L183.061 8.6437L175.904 17.1966L173.173 14.8165L165.819 33.0828L167.704 59.2006L226.618 95.1814L228.91 74.0909L223.846 63.5H227.636L232.747 49.4084V41.2169L237.144 38.4583L230.381 33.272L228.932 18.6245L224.178 6.69231L225.061 6.30769L229.869 18.3755L231.289 32.7279L238.87 38.5417L233.704 41.7831V49.5916L228.296 64.5H225.393L229.892 73.9091L227.488 96.0283V121.444L231.308 138.92L233.698 164.919L238.492 186.477L233.699 223.068L232.752 222.932L237.521 186.523L232.753 165.081L230.362 139.08L226.532 121.556V96.287L166.788 59.7994L164.848 32.9172L172.793 13.1835L175.799 15.8034L182.03 8.3563L180.164 -1.40194L181.102 -1.59806Z" fill="#B3B3B3"/>
<path fill-rule="evenodd" clip-rule="evenodd" d="M107.262 -4.42059L141.051 18.2954L138.894 24.5H133.633L125.19 48.5379L129.66 70.8745L100.146 56.5061L111.704 50.7251L108.844 38.7593L119.273 32.3143L106.583 7.73757L107.424 7.26243L120.552 32.6857L109.944 39.2407L112.821 51.2749L102.386 56.4939L128.333 69.1255L124.198 48.4621L132.966 23.5H138.224L139.892 18.7046L106.745 -3.57941L107.262 -4.42059Z" fill="#B3B3B3"/>
<path fill-rule="evenodd" clip-rule="evenodd" d="M174.49 115.265C163.808 97.4246 142.268 61.4694 141.508 60.2774L142.304 59.7226C143.069 60.9236 164.379 96.4946 175.115 114.424L202.964 106.892L212.172 142.369L211.249 142.631L202.289 108.108L174.676 115.576L174.49 115.265Z" fill="#B3B3B3"/>
<path fill-rule="evenodd" clip-rule="evenodd" d="M228.509 81.2506L229.336 80.7494L258.805 133.95L272.977 131.481L288.412 139.047L288.006 139.953L272.841 132.519L259.317 134.875L274.913 163.031L262 181.538L269.982 196.76L269.143 197.24L260.869 181.462L273.773 162.969L228.509 81.2506Z" fill="#B3B3B3"/>
<path fill-rule="evenodd" clip-rule="evenodd" d="M236.572 10.9345V-4.5H235.616V11.0655L237.584 18.7838L263.182 40.8569L262.036 42.6551L257.794 46.1053L258.381 46.8947L261.291 44.5275L256.209 57.8143L257.097 58.1857L262.816 43.234L263.924 41.4964L265.034 42.4539L294.599 50.9314L314.276 83.0536L337.933 78.415V68.3958L327.704 70.4333L321.101 54.1567L270.223 21.7259L266.73 35.2909L263.715 40.0206L238.429 18.2162L236.572 10.9345ZM264.457 40.66L265.484 41.5461L295.206 50.0686L314.734 81.9464L336.976 77.585V69.6042L327.125 71.5667L320.34 54.8433L270.814 23.2741L267.613 35.7091L264.457 40.66Z" fill="#B3B3B3"/>
<path fill-rule="evenodd" clip-rule="evenodd" d="M323.919 23.6166L311.556 4.22265L310.76 4.77735L323.201 24.2926L317.173 29.9665L328.37 42.695V54H329.327V42.305L318.531 30.0335L329.882 19.3496L336.61 22.8676L345.147 42.7052L346.019 42.2948L337.343 22.1324L330.646 18.6309L342.077 7.87165L341.438 7.12835L323.919 23.6166Z" fill="#B3B3B3"/>
<path fill-rule="evenodd" clip-rule="evenodd" d="M118.618 231.854L119.294 231.146L124.935 237.046L167.879 247.525L179.628 253.156L183.95 279.777L193.818 291.57L213.175 298.482L238.014 292.987L265.893 300.025L286.015 309.544L285.621 310.456L265.581 300.975L238 294.013L213.115 299.518L193.267 292.43L183.053 280.223L178.77 253.844L167.568 248.475L124.452 237.954L118.618 231.854Z" fill="#B3B3B3"/>
<path fill-rule="evenodd" clip-rule="evenodd" d="M68.2761 16.7427V-4.5H69.2323V17.2573L59.1032 24.8236L53.4182 39.1912L52.5346 38.8088L58.3244 24.1764L68.2761 16.7427Z" fill="#B3B3B3"/>
<path fill-rule="evenodd" clip-rule="evenodd" d="M9.82959 38.9916L-7.3057 37.4983L-7.22629 36.5017L10.0627 38.0084L39.811 51.2684L24.9888 76.2694L34.2036 80.3994L42.6446 70.5912L61.8555 61.0484L62.2657 61.9516L53.2129 66.4486L56.4558 71.3237L59.8947 69.076L60.4015 69.924L56.1907 72.6763L52.3373 66.8835L43.2275 71.4088L39.2762 76L43.1853 80.5422L52.5921 82.5097L52.4045 83.4903L42.6867 81.4578L38.633 76.7474L34.7182 81.2963L31.6233 86.8447L206.716 208.584L206.186 209.416L30.7511 87.4391L11.6165 78.4343L-9.93931 61.9032L-9.37383 61.0968L12.1007 77.5657L30.787 86.3594L33.6444 81.2367L23.5903 76.7306L38.4113 51.7316L9.82959 38.9916Z" fill="#B3B3B3"/>
<path fill-rule="evenodd" clip-rule="evenodd" d="M104.137 533.595C105.454 531.981 111 525.181 111 519.206C111 514.122 106.523 510 101 510C95.4772 510 91 514.122 91 519.206C91 524.257 93.9724 528.576 96.1594 531.754C96.6633 532.486 97.1255 533.158 97.5 533.764C98.4438 535.291 99.2762 537.1 99.8922 538.584C100.265 539.482 101.654 539.455 101.972 538.536C102.623 536.647 103.458 534.433 104 533.764C104.039 533.716 104.085 533.66 104.137 533.595ZM101 523C102.657 523 104 521.657 104 520C104 518.343 102.657 517 101 517C99.3431 517 98 518.343 98 520C98 521.657 99.3431 523 101 523Z" fill="#3FB139"/>
<path fill-rule="evenodd" clip-rule="evenodd" d="M289.137 570.595C290.454 568.981 296 562.181 296 556.206C296 551.122 291.523 547 286 547C280.477 547 276 551.122 276 556.206C276 561.257 278.972 565.576 281.159 568.754C281.663 569.486 282.125 570.158 282.5 570.764C283.444 572.291 284.276 574.1 284.892 575.584C285.265 576.482 286.654 576.455 286.972 575.536C287.623 573.647 288.458 571.433 289 570.764C289.039 570.716 289.085 570.66 289.137 570.595ZM286 560C287.657 560 289 558.657 289 557C289 555.343 287.657 554 286 554C284.343 554 283 555.343 283 557C283 558.657 284.343 560 286 560Z" fill="#3FB139"/>
<path fill-rule="evenodd" clip-rule="evenodd" d="M273.137 390.595C274.454 388.981 280 382.181 280 376.206C280 371.122 275.523 367 270 367C264.477 367 260 371.122 260 376.206C260 381.257 262.972 385.576 265.159 388.754C265.663 389.486 266.125 390.158 266.5 390.764C267.444 392.291 268.276 394.1 268.892 395.584C269.265 396.482 270.654 396.455 270.972 395.536C271.623 393.647 272.458 391.433 273 390.764C273.039 390.716 273.085 390.66 273.137 390.595ZM270 380C271.657 380 273 378.657 273 377C273 375.343 271.657 374 270 374C268.343 374 267 375.343 267 377C267 378.657 268.343 380 270 380Z" fill="#3FB139"/>
<path fill-rule="evenodd" clip-rule="evenodd" d="M141.137 119.595C142.454 117.981 148 111.181 148 105.206C148 100.122 143.523 96 138 96C132.477 96 128 100.122 128 105.206C128 110.257 130.972 114.576 133.159 117.754C133.663 118.486 134.125 119.158 134.5 119.764C135.444 121.291 136.276 123.1 136.892 124.584C137.265 125.482 138.654 125.455 138.972 124.536C139.623 122.647 140.458 120.433 141 119.764C141.039 119.716 141.085 119.66 141.137 119.595ZM138 109C139.657 109 141 107.657 141 106C141 104.343 139.657 103 138 103C136.343 103 135 104.343 135 106C135 107.657 136.343 109 138 109Z" fill="#3FB139"/>
<path fill-rule="evenodd" clip-rule="evenodd" d="M103.137 56.5949C104.454 54.9806 110 48.1808 110 42.2063C110 37.1218 105.523 33 100 33C94.4772 33 90 37.1218 90 42.2063C90 47.2569 92.9724 51.5762 95.1594 54.7541C95.6633 55.4863 96.1255 56.1579 96.5 56.7639C97.4438 58.291 98.2762 60.0995 98.8922 61.5838C99.2652 62.4824 100.654 62.4554 100.972 61.5357C101.623 59.647 102.458 57.4334 103 56.7639C103.039 56.7162 103.085 56.6597 103.137 56.5949ZM100 46C101.657 46 103 44.6569 103 43C103 41.3431 101.657 40 100 40C98.3431 40 97 41.3431 97 43C97 44.6569 98.3431 46 100 46Z" fill="#3FB139"/>
<path fill-rule="evenodd" clip-rule="evenodd" d="M45.1375 199.595C46.4542 197.981 52 191.181 52 185.206C52 180.122 47.5228 176 42 176C36.4772 176 32 180.122 32 185.206C32 190.257 34.9724 194.576 37.1594 197.754C37.6633 198.486 38.1255 199.158 38.5 199.764C39.4438 201.291 40.2762 203.1 40.8922 204.584C41.2652 205.482 42.6545 205.455 42.9718 204.536C43.6234 202.647 44.4584 200.433 45 199.764C45.0386 199.716 45.0846 199.66 45.1375 199.595ZM42 189C43.6569 189 45 187.657 45 186C45 184.343 43.6569 183 42 183C40.3431 183 39 184.343 39 186C39 187.657 40.3431 189 42 189Z" fill="#3FB139"/>
</g>
<circle cx="308" cy="119" r="18" fill="#1A1A1A"/>
<path d="M299 128L311.972 121.972L318 109L305.028 115.028L299 128ZM308.5 116.6C309.554 116.6 310.4 117.446 310.4 118.5C310.4 119.554 309.554 120.4 308.5 120.4C307.446 120.4 306.6 119.554 306.6 118.5C306.6 117.446 307.446 116.6 308.5 116.6Z" fill="white"/>
<circle cx="308" cy="540" r="18" fill="#1A1A1A"/>
<path d="M308 536C305.79 536 304 537.79 304 540C304 542.21 305.79 544 308 544C310.21 544 312 542.21 312 540C312 537.79 310.21 536 308 536ZM316.94 539C316.48 534.83 313.17 531.52 309 531.06V529H307V531.06C302.83 531.52 299.52 534.83 299.06 539H297V541H299.06C299.52 545.17 302.83 548.48 307 548.94V551H309V548.94C313.17 548.48 316.48 545.17 316.94 541H319V539H316.94ZM308 547C304.13 547 301 543.87 301 540C301 536.13 304.13 533 308 533C311.87 533 315 536.13 315 540C315 543.87 311.87 547 308 547Z" fill="white"/>
<circle cx="308" cy="74" r="18" fill="#1A1A1A"/>
<path d="M307.99 80.54L300.62 74.81L299 76.07L308 83.07L317 76.07L315.37 74.8L307.99 80.54ZM308 78L315.36 72.27L317 71L308 64L299 71L300.63 72.27L308 78ZM308 66.53L313.74 71L308 75.47L302.26 71L308 66.53Z" fill="white"/>
<path d="M87 341.255L175 332L140.559 374.104L133.301 375L87 341.255Z" fill="url(#paint0_linear_25_642)"/>
<circle cx="137" cy="372.427" r="7" fill="#E66400" stroke="white" stroke-width="2"/>
<path d="M274 237.5L260.5 235L245.5 223.5L217 237.5L204 249.5L221 275L241 295V300H221L182 335.5L176.5 360.5L163 354L134 287L80 328L48.5 348L41.5 351L34.5 335.5L19 328" stroke="#1A1A1A" stroke-width="3"/>
<path d="M275 223.748C278.45 222.86 281 219.728 281 216C281 211.582 277.418 208 273 208C268.582 208 265 211.582 265 216C265 220.08 268.054 223.446 272 223.938V239H275V223.748Z" fill="#1A1A1A"/>
<circle cx="273" cy="216" r="3" fill="white"/>
<path d="M21 314.748C24.4505 313.86 27 310.728 27 307C27 302.582 23.4183 299 19 299C14.5817 299 11 302.582 11 307C11 311.08 14.0537 314.446 18 314.938V330H21V314.748Z" fill="#1A1A1A"/>
<circle cx="19" cy="307" r="3" fill="white"/>
</g>
<defs>
<linearGradient id="paint0_linear_25_642" x1="131.869" y1="343.484" x2="139.348" y2="394.243" gradientUnits="userSpaceOnUse">
<stop stop-color="#FF8F38" stop-opacity="0"/>
<stop offset="1" stop-color="#FF8F38"/>
</linearGradient>
<clipPath id="clip0_25_642">
<rect width="342" height="614" fill="white"/>
</clipPath>
</defs>
</svg>
